<?xml version="1.0" standalone="no"?>
<!DOCTYPE svg PUBLIC "-//W3C//DTD SVG 20010904//EN"
 "http://www.w3.org/TR/2001/REC-SVG-20010904/DTD/svg10.dtd">
<svg version="1.0" xmlns="http://www.w3.org/2000/svg"
 width="274.000000pt" height="52.000000pt" viewBox="0 0 274.000000 52.000000"
 preserveAspectRatio="xMidYMid meet">

<g transform="translate(0.000000,52.000000) scale(0.100000,-0.100000)"
fill="#000000" stroke="none">
<path d="M234 396 c-3 -9 1 -48 10 -87 9 -39 14 -75 11 -79 -3 -5 -1 -11 4
-14 5 -3 12 -29 16 -56 6 -44 10 -50 31 -50 13 0 27 0 32 -1 10 0 47 160 65
281 3 19 -51 27 -57 8 -3 -7 -11 -42 -18 -78 l-14 -65 -14 75 c-13 65 -18 75
-38 78 -13 2 -25 -3 -28 -12z"/>
<path d="M447 404 c-4 -4 -7 -72 -7 -151 l0 -143 35 0 36 0 -3 148 -3 147 -25
3 c-14 2 -29 0 -33 -4z"/>
<path d="M767 404 c-4 -4 -7 -20 -7 -36 0 -24 4 -28 29 -28 l30 0 -1 -111 c0
-61 3 -113 6 -117 10 -9 46 -10 52 -1 3 5 5 58 5 119 l0 110 30 0 c28 0 30 2
27 33 l-3 32 -80 3 c-45 1 -84 0 -88 -4z"/>
<path d="M1013 396 c-33 -15 -33 -15 -34 -93 -1 -121 2 -167 13 -180 17 -21
131 -17 151 5 27 30 27 218 -1 252 -22 27 -86 35 -129 16z m87 -141 l0 -85
-30 0 -30 0 0 85 0 85 30 0 30 0 0 -85z"/>
<path d="M1208 404 c-9 -8 -11 -288 -3 -296 3 -2 18 -3 35 0 27 4 30 8 30 43
0 35 3 39 25 39 22 0 25 -4 25 -38 0 -46 3 -51 35 -44 l25 4 0 133 c0 110 -3
135 -16 146 -18 15 -144 25 -156 13z m112 -104 c0 -36 -2 -40 -25 -40 -22 0
-25 4 -25 40 0 36 3 40 25 40 23 0 25 -4 25 -40z"/>
<path d="M1417 403 c-3 -5 8 -51 24 -103 15 -52 29 -116 29 -141 0 -54 3 -58
35 -51 21 4 25 10 25 39 0 19 14 82 30 139 17 58 28 109 25 114 -10 16 -44 11
-53 -7 -6 -10 -13 -37 -17 -61 -8 -51 -20 -47 -29 10 -4 23 -12 48 -18 55 -11
14 -44 18 -51 6z"/>
<path d="M1627 404 c-4 -4 -7 -20 -7 -36 0 -25 4 -28 31 -28 l31 0 -2 -62 c-2
-35 -2 -87 -1 -115 1 -52 2 -53 31 -53 30 0 30 0 31 58 0 31 0 83 -1 114 -1
55 -1 57 27 60 24 3 28 8 28 33 l0 30 -80 3 c-45 1 -84 0 -88 -4z"/>
<path d="M1883 404 c-38 -9 -43 -27 -45 -149 -1 -140 3 -147 87 -147 68 -1 86
14 94 74 10 69 -2 185 -20 203 -17 17 -78 27 -116 19z m67 -149 c0 -84 0 -85
-25 -85 -25 0 -25 1 -25 85 0 84 0 85 25 85 25 0 25 -1 25 -85z"/>
<path d="M2100 403 c-40 -15 -50 -35 -50 -103 0 -83 12 -100 73 -107 67 -8 58
-23 -14 -23 l-60 0 3 -32 3 -31 75 2 c87 2 100 12 100 77 0 50 -16 66 -73 73
-40 6 -42 7 -42 41 l0 35 58 3 58 3 -3 32 c-3 31 -4 32 -58 34 -30 1 -62 -1
-70 -4z"/>
<path d="M2277 403 c-6 -9 -9 -121 -8 -235 1 -58 1 -58 31 -58 28 0 30 2 30
40 0 38 2 40 30 40 28 0 30 -2 30 -40 0 -38 2 -40 29 -40 28 0 29 1 33 58 1
31 1 98 -2 147 -5 88 -6 90 -30 90 -24 0 -25 -3 -28 -72 l-3 -73 -29 0 -29 0
-3 73 c-3 65 -5 72 -25 75 -11 2 -23 -1 -26 -5z"/>
<path d="M566 382 c-13 -15 -16 -41 -17 -125 0 -58 4 -114 10 -125 20 -38 141
-39 161 -1 6 10 10 29 10 43 0 22 -4 26 -30 26 -20 0 -30 -5 -30 -15 0 -10
-10 -15 -30 -15 l-30 0 0 85 0 85 30 0 c20 0 30 -5 30 -15 0 -10 10 -15 30
-15 27 0 30 3 30 29 0 45 -23 61 -89 61 -43 0 -62 -5 -75 -18z"/>
<path d="M910 10 c0 -5 5 -10 10 -10 6 0 10 5 10 10 0 6 -4 10 -10 10 -5 0
-10 -4 -10 -10z"/>
<path d="M960 10 c0 -5 5 -10 10 -10 6 0 10 5 10 10 0 6 -4 10 -10 10 -5 0
-10 -4 -10 -10z"/>
</g>
</svg>
