<?xml version="1.0" standalone="no"?>
<!DOCTYPE svg PUBLIC "-//W3C//DTD SVG 20010904//EN"
 "http://www.w3.org/TR/2001/REC-SVG-20010904/DTD/svg10.dtd">
<svg version="1.0" xmlns="http://www.w3.org/2000/svg"
 width="148.000000pt" height="30.000000pt" viewBox="0 0 148.000000 30.000000"
 preserveAspectRatio="xMidYMid meet">

<g transform="translate(0.000000,30.000000) scale(0.100000,-0.100000)"
fill="#000000" stroke="none">
<path d="M160 253 c0 -18 35 -113 41 -113 5 0 15 23 24 52 17 60 18 68 6 68
-5 0 -12 -18 -16 -40 -8 -47 -20 -45 -29 5 -4 19 -11 35 -16 35 -6 0 -10 -3
-10 -7z"/>
<path d="M280 200 c0 -33 4 -60 10 -60 6 0 10 27 10 60 0 33 -4 60 -10 60 -6
0 -10 -27 -10 -60z"/>
<path d="M356 238 c-9 -12 -16 -29 -16 -38 0 -22 28 -60 45 -60 15 0 49 30 41
37 -2 3 -13 0 -24 -6 -36 -19 -59 32 -27 59 12 10 19 10 27 2 19 -19 30 -14
18 8 -14 26 -45 25 -64 -2z"/>
<path d="M460 250 c0 -5 7 -10 15 -10 11 0 15 -12 15 -50 0 -27 5 -50 10 -50
6 0 10 23 10 50 0 28 5 50 10 50 6 0 10 5 10 10 0 6 -16 10 -35 10 -19 0 -35
-4 -35 -10z"/>
<path d="M582 248 c-6 -6 -12 -29 -12 -49 0 -64 52 -80 79 -24 12 25 12 32 0
54 -16 29 -48 38 -67 19z m48 -23 c16 -19 3 -55 -20 -55 -23 0 -33 26 -20 51
13 23 23 24 40 4z"/>
<path d="M700 200 c0 -33 4 -60 10 -60 6 0 10 8 10 18 1 16 1 16 11 0 14 -25
33 -23 19 1 -7 14 -7 27 1 45 14 30 -1 56 -32 56 -17 0 -19 -8 -19 -60z m40
26 c0 -8 -4 -18 -10 -21 -5 -3 -10 3 -10 14 0 12 5 21 10 21 6 0 10 -6 10 -14z"/>
<path d="M805 230 c8 -16 15 -43 15 -60 0 -16 5 -30 10 -30 6 0 10 12 10 28 1
15 7 38 15 52 17 30 18 40 5 40 -6 0 -15 -10 -20 -22 l-9 -23 -7 23 c-3 12
-13 22 -20 22 -12 0 -12 -5 1 -30z"/>
<path d="M900 250 c0 -5 7 -10 15 -10 11 0 15 -12 15 -50 0 -27 5 -50 10 -50
6 0 10 23 10 50 0 28 5 50 10 50 6 0 10 5 10 10 0 6 -16 10 -35 10 -19 0 -35
-4 -35 -10z"/>
<path d="M1020 241 c-22 -43 -2 -101 35 -101 18 0 45 39 45 66 0 24 -29 54
-53 54 -9 0 -21 -9 -27 -19z m58 -45 c-4 -30 -42 -28 -46 3 -2 13 2 27 9 32
18 11 41 -10 37 -35z"/>
<path d="M1147 253 c-15 -14 -6 -43 18 -59 14 -9 25 -20 25 -25 0 -14 -28 -11
-33 4 -2 6 -8 9 -12 5 -12 -12 3 -38 23 -38 44 0 58 55 17 70 -14 5 -25 14
-25 20 0 13 17 13 25 0 4 -6 11 -8 16 -4 14 8 -9 34 -31 34 -9 0 -20 -3 -23
-7z"/>
<path d="M1250 200 c0 -33 4 -60 10 -60 6 0 10 11 10 25 0 16 6 25 15 25 9 0
15 -9 15 -25 0 -14 5 -25 10 -25 6 0 10 27 10 60 0 33 -4 60 -10 60 -5 0 -10
-11 -10 -25 0 -16 -6 -25 -15 -25 -9 0 -15 9 -15 25 0 14 -4 25 -10 25 -6 0
-10 -27 -10 -60z"/>
<path d="M461 114 c0 -11 3 -14 6 -6 3 7 2 16 -1 19 -3 4 -6 -2 -5 -13z"/>
<path d="M560 88 c0 -9 -6 -19 -12 -21 -10 -4 -10 -6 0 -6 14 -1 28 26 18 36
-3 4 -6 -1 -6 -9z"/>
<path d="M592 80 c0 -14 2 -19 5 -12 2 6 2 18 0 25 -3 6 -5 1 -5 -13z"/>
<path d="M722 80 c0 -14 2 -19 5 -12 2 6 2 18 0 25 -3 6 -5 1 -5 -13z"/>
<path d="M742 80 c0 -14 2 -19 5 -12 2 6 2 18 0 25 -3 6 -5 1 -5 -13z"/>
<path d="M778 88 c10 -13 10 -17 0 -21 -9 -4 -9 -6 -1 -6 20 -2 24 16 5 30
-15 13 -16 12 -4 -3z"/>
<path d="M866 84 c-3 -9 -4 -19 -1 -22 3 -3 5 1 5 9 0 11 2 11 10 -1 5 -8 10
-10 10 -5 0 6 -4 16 -9 23 -6 11 -10 10 -15 -4z"/>
<path d="M923 86 c1 -11 9 -21 17 -23 10 -3 11 -2 4 4 -6 4 -14 15 -17 23 -5
11 -6 9 -4 -4z"/>
<path d="M1000 86 c0 -8 -6 -17 -12 -19 -8 -3 -6 -6 5 -6 11 -1 17 6 17 19 0
11 -2 20 -5 20 -3 0 -5 -6 -5 -14z"/>
<path d="M660 81 c0 -10 19 -25 25 -20 1 2 -3 10 -11 17 -8 7 -14 8 -14 3z"/>
</g>
</svg>
