<?xml version="1.0" standalone="no"?>
<!DOCTYPE svg PUBLIC "-//W3C//DTD SVG 20010904//EN"
 "http://www.w3.org/TR/2001/REC-SVG-20010904/DTD/svg10.dtd">
<svg version="1.0" xmlns="http://www.w3.org/2000/svg"
 width="40.000000pt" height="35.000000pt" viewBox="0 0 40.000000 35.000000"
 preserveAspectRatio="xMidYMid meet">

<g transform="translate(0.000000,35.000000) scale(0.100000,-0.100000)"
fill="#000000" stroke="none">
<path d="M0 175 l0 -175 200 0 200 0 0 175 0 175 -200 0 -200 0 0 -175z m213
158 c-7 -2 -19 -2 -25 0 -7 3 -2 5 12 5 14 0 19 -2 13 -5z m91 -34 c14 -11 31
-30 37 -42 7 -15 2 -11 -17 10 -16 17 -38 36 -49 42 -11 6 -15 11 -9 11 6 0
23 -9 38 -21z m-220 -24 c-4 -8 -11 -15 -16 -15 -6 0 -5 6 2 15 7 8 14 15 16
15 2 0 1 -7 -2 -15z m-32 -57 c-8 -8 -9 -4 -5 13 4 13 8 18 11 10 2 -7 -1 -18
-6 -23z m129 -26 l16 -47 26 50 c14 28 26 46 26 40 0 -5 -13 -35 -29 -65 -24
-47 -29 -52 -36 -35 -4 11 -13 35 -20 54 -15 36 -19 69 -6 57 4 -4 14 -28 23
-54z m-128 -37 c4 -27 3 -35 -3 -25 -5 8 -10 28 -10 44 0 39 6 30 13 -19z m89
-110 c18 -8 27 -14 19 -15 -22 0 -80 40 -93 63 -8 17 -5 16 16 -6 14 -15 41
-34 58 -42z m143 5 c-3 -5 -12 -10 -18 -10 -7 0 -6 4 3 10 19 12 23 12 15 0z
m-72 -27 c-7 -2 -19 -2 -25 0 -7 3 -2 5 12 5 14 0 19 -2 13 -5z"/>
</g>
</svg>
