<?xml version="1.0" standalone="no"?>
<!DOCTYPE svg PUBLIC "-//W3C//DTD SVG 20010904//EN"
 "http://www.w3.org/TR/2001/REC-SVG-20010904/DTD/svg10.dtd">
<svg version="1.0" xmlns="http://www.w3.org/2000/svg"
 width="284.000000pt" height="54.000000pt" viewBox="0 0 284.000000 54.000000"
 preserveAspectRatio="xMidYMid meet">

<g transform="translate(0.000000,54.000000) scale(0.100000,-0.100000)"
fill="#000000" stroke="none">
<path d="M0 270 l0 -270 1420 0 1420 0 0 270 0 270 -1420 0 -1420 0 0 -270z
m335 135 l22 -70 12 45 c24 88 27 95 50 98 16 3 22 0 18 -10 -2 -7 -17 -55
-33 -105 -24 -77 -33 -93 -49 -93 -16 0 -25 16 -49 93 -16 50 -31 98 -33 105
-4 10 2 13 18 10 19 -2 27 -15 44 -73z m205 -30 c0 -97 -1 -105 -19 -105 -18
0 -20 7 -19 105 1 95 3 105 19 105 17 0 19 -9 19 -105z m226 73 l27 -33 -22
-3 c-13 -2 -31 4 -42 14 -17 15 -20 16 -44 0 -30 -20 -34 -69 -8 -98 20 -22
36 -23 53 -3 7 8 23 15 36 15 24 0 24 -1 9 -29 -8 -16 -20 -31 -26 -33 -9 -3
-9 -17 1 -58 15 -60 16 -59 35 34 3 15 8 26 11 23 7 -7 -18 -167 -26 -167 -4
0 -13 25 -20 55 -7 30 -16 55 -20 55 -4 0 -12 -25 -19 -55 -7 -30 -16 -55 -20
-55 -4 0 -13 36 -20 81 -7 44 -21 95 -32 112 -44 74 -6 177 66 177 25 0 40 -8
61 -32z m214 12 c0 -15 -7 -20 -25 -20 -25 0 -25 -1 -25 -89 0 -84 -1 -89 -20
-84 -18 5 -20 14 -20 88 0 78 -1 84 -22 87 -11 2 -22 11 -24 21 -2 15 7 17 67
17 62 0 69 -2 69 -20z m204 -11 c30 -35 35 -93 11 -138 -38 -74 -137 -46 -152
42 -16 101 81 168 141 96z m206 12 c15 -29 12 -82 -5 -101 -14 -16 -14 -21 6
-54 l21 -36 -25 0 c-18 0 -29 9 -41 33 l-16 32 0 -32 c0 -26 -4 -33 -20 -33
-19 0 -20 7 -20 105 l0 105 45 0 c34 0 47 -5 55 -19z m137 -16 l17 -36 18 36
c12 22 26 35 38 35 26 0 25 -4 -10 -67 -21 -37 -30 -66 -30 -98 0 -38 -3 -45
-20 -45 -18 0 -20 7 -20 55 0 42 -7 65 -30 105 l-29 50 24 0 c19 0 30 -9 42
-35z m283 15 c0 -13 -7 -20 -20 -20 -18 0 -20 -7 -20 -84 0 -75 -2 -84 -20
-89 -18 -5 -19 1 -22 82 -3 81 -4 86 -25 89 -15 2 -23 10 -23 23 0 17 7 19 65
19 58 0 65 -2 65 -20z m191 10 c25 -14 49 -62 49 -98 0 -45 -40 -96 -77 -100
-44 -4 -72 13 -89 54 -37 89 40 184 117 144z m231 -7 c20 -18 24 -53 6 -53 -6
0 -19 7 -29 16 -20 18 -53 12 -47 -8 2 -6 20 -17 39 -23 100 -34 58 -147 -45
-121 -18 4 -46 42 -46 61 0 13 40 3 48 -11 9 -17 53 -16 59 1 1 6 -18 21 -45
35 -37 20 -48 31 -50 53 -7 57 66 90 110 50z m138 -28 c0 -41 2 -45 25 -45 23
0 25 4 25 45 0 38 3 45 20 45 19 0 20 -7 20 -105 0 -98 -1 -105 -20 -105 -17
0 -20 7 -20 40 0 36 -2 40 -25 40 -22 0 -25 -4 -25 -40 0 -33 -3 -40 -20 -40
-19 0 -20 7 -20 105 0 98 1 105 20 105 17 0 20 -7 20 -45z m-626 -281 l-17
-59 -17 40 -18 40 -7 -38 c-4 -21 -11 -35 -15 -30 -13 14 -39 103 -30 103 5 0
11 -13 15 -30 8 -39 21 -38 29 1 7 37 21 31 31 -13 l7 -33 10 30 c5 17 12 36
14 44 2 8 7 11 10 9 3 -3 -3 -32 -12 -64z m147 35 c14 -27 3 -40 -32 -34 -21
4 -29 1 -29 -9 0 -22 19 -30 36 -15 19 16 30 4 14 -16 -16 -19 -29 -19 -52 2
-25 22 -23 68 3 87 25 17 45 12 60 -15z m132 23 c3 7 6 -16 6 -52 0 -40 -3
-60 -8 -51 -6 9 -11 10 -15 2 -17 -27 -56 7 -56 49 0 34 36 66 56 49 8 -7 14
-6 17 3z m117 -8 c0 -7 -5 -14 -12 -16 -6 -2 -14 -24 -18 -49 l-7 -44 -2 60
c-1 54 1 61 19 61 11 0 20 -6 20 -12z m-1210 -20 c12 -31 -6 -77 -31 -82 -38
-7 -66 67 -37 96 22 22 58 14 68 -14z m176 -34 c1 -30 0 -41 -2 -25 -9 62 -14
74 -29 69 -10 -4 -15 -22 -16 -53 l-2 -46 -6 47 c-4 26 -10 50 -13 54 -15 14
-28 -10 -28 -52 0 -24 -4 -44 -10 -44 -5 0 -10 25 -10 55 l0 55 58 -2 57 -3 1
-55z m128 54 c9 -3 16 -16 16 -28 0 -18 -5 -22 -30 -20 -35 2 -46 -9 -25 -26
12 -10 18 -10 30 0 9 7 19 10 23 6 7 -7 -24 -36 -39 -36 -17 0 -39 33 -39 59
0 42 25 60 64 45z m142 -54 c1 -36 0 -41 -3 -15 -2 22 -6 46 -8 54 -9 24 -35
-9 -35 -45 0 -18 -4 -36 -10 -39 -6 -4 -10 15 -10 50 l0 56 33 -3 c32 -3 32
-4 33 -58z m120 49 c4 -7 0 -9 -14 -5 -30 10 -37 -12 -8 -26 32 -14 35 -54 6
-63 -24 -8 -40 1 -40 22 0 13 3 13 15 3 12 -10 19 -10 27 -2 8 8 4 14 -15 23
-25 11 -35 37 -20 52 10 11 41 8 49 -4z"/>
<path d="M681 238 c0 -18 4 -41 8 -52 6 -15 9 -11 19 21 16 55 15 63 -8 63
-16 0 -20 -6 -19 -32z"/>
<path d="M1090 410 c-16 -30 -8 -70 15 -86 18 -12 24 -11 43 2 25 17 30 72 10
92 -19 19 -56 14 -68 -8z"/>
<path d="M1330 410 c0 -32 11 -38 29 -16 14 16 4 46 -15 46 -9 0 -14 -11 -14
-30z"/>
<path d="M1924 405 c-17 -26 -13 -55 12 -80 20 -20 30 -19 54 5 24 24 26 63 4
84 -23 23 -51 20 -70 -9z"/>
<path d="M1840 190 c-19 -12 -7 -22 21 -18 19 2 20 5 8 15 -9 7 -20 9 -29 3z"/>
<path d="M1976 185 c-20 -20 -20 -26 -2 -50 12 -16 16 -17 30 -6 20 17 21 45
2 60 -11 9 -18 8 -30 -4z"/>
<path d="M876 185 c-20 -20 -20 -39 -1 -55 18 -15 45 2 45 30 0 29 -25 43 -44
25z"/>
<path d="M1190 185 c-11 -13 -8 -15 20 -15 28 0 31 2 20 15 -7 8 -16 15 -20
15 -4 0 -13 -7 -20 -15z"/>
</g>
</svg>
